# xmcd
#
# Track frame offsets: 
#        150
#        32095
#        69560
#        93600
#        160657
#        197410
#
# Disc length: 2942 seconds
#
# Revision: 2
# Processed by: cddbd v1.5.2PL0 Copyright (c) Steve Scherf et al.
# Submitted via: ExactAudioCopy v0.99pb3
#
DISCID=460b7c06
DTITLE=Champion Jack Dupree - Oh Lord, What Have I Done
DYEAR=1992
DGENRE=Blues
TTITLE0=Wine, Wine, Wine
TTITLE1=You Can Make It, You Can Make It
TTITLE2=Reminiscing Fats W.
TTITLE3=Oh Lord, What Have I Done
TTITLE4=I Ain´t Good Looking
TTITLE5=I´ll Be Seeing You
EXTD=
EXTT0=
EXTT1=
EXTT2=
EXTT3=
EXTT4=
EXTT5=
PLAYORDER=
